<?xml version="1.0" standalone="no"?>
<!DOCTYPE svg PUBLIC "-//W3C//DTD SVG 20010904//EN"
 "http://www.w3.org/TR/2001/REC-SVG-20010904/DTD/svg10.dtd">
<svg version="1.0" xmlns="http://www.w3.org/2000/svg"
 width="910.000000pt" height="910.000000pt" viewBox="0 0 910.000000 910.000000"
 preserveAspectRatio="xMidYMid meet">
<metadata>
Created by potrace 1.11, written by Peter Selinger 2001-2013
</metadata>
<g transform="translate(0.000000,910.000000) scale(0.100000,-0.100000)"
fill="#000000" stroke="none">
<path d="M0 4550 l0 -4550 4550 0 4550 0 0 4550 0 4550 -4550 0 -4550 0 0
-4550z m3485 4408 c55 -19 151 -52 213 -71 124 -40 178 -72 242 -144 42 -47
100 -157 100 -189 0 -26 -76 -11 -168 32 -150 70 -218 96 -342 126 -120 30
-136 31 -375 35 -279 4 -369 -4 -520 -47 -55 -16 -136 -34 -179 -40 -144 -19
-189 -56 -288 -235 -102 -186 -123 -291 -92 -467 21 -120 37 -143 144 -201 79
-44 162 -64 312 -76 132 -11 178 -25 178 -52 0 -24 -32 -44 -98 -59 -33 -8
-59 -21 -71 -36 -15 -19 -40 -29 -108 -44 -103 -22 -147 -39 -303 -113 -142
-67 -187 -110 -273 -255 -116 -198 -173 -374 -192 -602 -7 -76 -11 -99 -40
-229 -18 -85 -14 -134 23 -236 27 -75 60 -134 101 -179 60 -65 296 -221 381
-251 23 -8 92 -19 152 -25 109 -10 199 -30 310 -69 51 -17 90 -20 400 -23
l343 -3 130 37 c72 20 149 40 173 43 36 6 51 16 104 75 54 61 113 141 195 265
39 59 329 350 396 397 31 23 57 44 57 47 0 3 -18 33 -41 66 -22 33 -66 111
-97 174 l-57 114 0 106 c1 268 17 544 34 609 113 424 142 471 330 552 189 82
223 102 316 191 154 146 163 151 360 220 171 59 324 96 530 128 194 30 227 33
560 51 105 6 200 13 211 15 12 3 78 5 147 6 149 2 179 -7 339 -93 133 -73 200
-101 333 -140 242 -71 316 -139 472 -438 81 -154 109 -228 127 -337 19 -107
13 -162 -20 -198 -28 -31 -70 -33 -123 -5 -59 29 -179 166 -251 285 -157 258
-305 470 -368 527 -61 55 -91 60 -334 52 l-213 -7 -135 38 c-220 62 -295 59
-495 -20 -33 -13 -94 -31 -135 -39 -41 -9 -109 -23 -150 -32 -86 -18 -215 -55
-312 -90 -87 -30 -161 -69 -273 -140 -49 -31 -133 -82 -185 -112 -165 -96
-213 -146 -245 -257 -24 -84 -25 -451 -1 -575 28 -147 39 -168 116 -232 38
-31 102 -73 142 -92 126 -61 167 -68 433 -73 198 -4 246 -7 274 -21 19 -9 37
-23 39 -30 8 -27 -63 -76 -150 -105 -97 -31 -130 -53 -148 -97 -9 -23 -19 -30
-39 -30 -51 0 -205 -37 -312 -75 -74 -27 -238 -115 -345 -186 -86 -58 -190
-168 -226 -240 -163 -329 -190 -396 -257 -650 -16 -64 -51 -160 -75 -213 -25
-54 -53 -123 -61 -154 -20 -75 -32 -411 -17 -505 31 -199 222 -482 396 -587
31 -19 114 -73 184 -119 70 -46 158 -99 197 -117 70 -33 208 -68 320 -79 33
-4 98 -13 145 -20 52 -8 173 -14 310 -14 124 0 239 -2 255 -5 17 -3 125 -10
240 -15 116 -6 239 -16 275 -22 123 -21 263 -16 389 14 298 70 552 169 759
294 72 44 216 148 257 186 11 10 21 14 23 9 4 -13 -90 -222 -132 -290 -65
-107 -146 -162 -342 -230 -49 -17 -149 -56 -223 -87 -155 -64 -204 -78 -390
-110 -188 -32 -270 -43 -386 -50 -55 -3 -138 -10 -185 -15 -47 -6 -92 -10
-100 -10 -8 0 -21 -4 -29 -9 -12 -8 -10 -16 11 -48 144 -218 186 -622 107
-1028 -108 -550 -485 -1139 -832 -1300 -96 -45 -117 -50 -117 -32 0 9 4 17 9
19 16 6 113 163 158 257 143 300 225 648 303 1284 20 164 35 252 49 283 11 25
26 71 32 102 11 52 10 64 -15 147 -15 50 -36 119 -47 155 -12 40 -19 86 -17
120 l3 55 -88 15 c-84 13 -98 13 -254 -9 -136 -20 -189 -23 -302 -18 -126 6
-262 23 -371 47 -25 6 -107 22 -182 35 -271 50 -353 90 -633 310 -216 169
-243 194 -288 263 -93 139 -184 355 -198 466 -5 37 -7 159 -5 270 4 173 8 215
30 306 41 164 54 245 61 375 8 139 24 218 59 289 14 27 24 52 22 53 -10 10
-213 -23 -341 -56 -82 -21 -193 -49 -246 -61 -53 -12 -102 -25 -108 -29 -7 -5
0 -28 23 -72 19 -35 40 -89 46 -119 21 -93 24 -329 5 -443 -58 -373 -324 -795
-581 -926 -56 -28 -94 -39 -94 -26 0 3 20 35 45 71 137 199 231 504 309 994 8
47 26 119 41 159 l27 75 -27 104 c-15 57 -25 121 -24 142 2 22 1 41 -2 44 -3
3 -160 8 -350 11 -375 6 -366 5 -529 73 -172 72 -316 162 -363 225 -13 18 -41
75 -62 127 -21 52 -53 125 -72 162 -18 38 -50 128 -70 200 -33 117 -37 146
-37 238 1 73 8 131 23 190 12 47 28 118 37 159 31 150 157 421 227 490 25 24
54 48 65 55 117 65 232 150 287 211 6 6 31 26 58 44 26 17 47 34 47 37 0 3
-16 34 -35 68 -128 229 -152 384 -96 624 16 70 34 159 41 197 21 128 59 178
184 242 28 14 73 42 100 63 97 73 243 138 439 196 255 77 231 74 567 71 l305
-3 100 -36z m3901 -6261 l26 -23 -26 -135 c-34 -174 -45 -302 -46 -529 0 -399
78 -805 207 -1079 38 -82 43 -121 28 -229 l-8 -63 39 -40 c21 -23 58 -52 81
-65 23 -14 57 -42 77 -64 l34 -38 -1 -129 c-2 -106 -5 -135 -22 -168 -19 -37
-23 -40 -67 -43 -62 -4 -167 28 -243 73 -239 143 -401 490 -461 983 -22 190
-15 578 15 757 56 337 147 588 276 753 26 34 52 62 56 62 4 0 20 -10 35 -23z"/>
</g>
</svg>
